{"title":"19th Annual Screen Awards Red Carpet + Main Event [19th January","uid":8043984,"size":2140096514,"categoryP":"video","categoryS":"hd___tv_shows","magnet":"?xt=urn:btih:511da3fca7c2413e92a4de1b14d8821c3b0ae491&amp;dn=19th+Annual+Screen+Awards+Red+Carpet+%2B+Main+Event+%5B19th+January+&amp;tr=udp%3A%2F%2Ftracker.openbittorrent.com%3A80&amp;tr=udp%3A%2F%2Fopen.demonii.com%3A1337&amp;tr=udp%3A%2F%2Ftracker.coppersurfer.tk%3A6969&amp;tr=udp%3A%2F%2Fexodus.desync.com%3A6969","seeders":1,"leechers":0,"uploader":"arsenal_rocks","files":2,"time":1358706448,"description":" &lt;a href=&quot;http://s13.postimage.org/tfj3iczyf/vlcsnap_2013_01_20_02h38m08s4.png&quot; rel=&quot;nofollow&quot; target=&quot;_NEW&quot;&gt;http://s13.postimage.org/tfj3iczyf/vlcsnap_2013_01_20_02h38m08s4.png&lt;/a&gt; &lt;a href=&quot;\nhttp://s13.postimage.org/uvq0mrdhj/vlcsnap_2013_01_20_02h36m54s41.png&quot; rel=&quot;nofollow&quot; target=&quot;_NEW&quot;&gt;\nhttp://s13.postimage.org/uvq0mrdhj/vlcsnap_2013_01_20_02h36m54s41.png&lt;/a&gt; &lt;a href=&quot;\nhttp://s13.postimage.org/jyooxzqpz/vlcsnap_2013_01_20_02h37m17s24.png&quot; rel=&quot;nofollow&quot; target=&quot;_NEW&quot;&gt;\nhttp://s13.postimage.org/jyooxzqpz/vlcsnap_2013_01_20_02h37m17s24.png&lt;/a&gt; &lt;a href=&quot;\nhttp://s13.postimage.org/5jbdcu32f/vlcsnap_2013_01_20_02h37m32s167.png&quot; rel=&quot;nofollow&quot; target=&quot;_NEW&quot;&gt;\nhttp://s13.postimage.org/5jbdcu32f/vlcsnap_2013_01_20_02h37m32s167.png&lt;/a&gt; &lt;a href=&quot;\nhttp://s13.postimage.org/81x2diosn/vlcsnap_2013_01_20_02h37m40s1.png&quot; rel=&quot;nofollow&quot; target=&quot;_NEW&quot;&gt;\nhttp://s13.postimage.org/81x2diosn/vlcsnap_2013_01_20_02h37m40s1.png&lt;/a&gt; &lt;a href=&quot;\nhttp://s13.postimage.org/kj3q0ojyf/vlcsnap_2013_01_20_02h38m01s208.png&quot; rel=&quot;nofollow&quot; target=&quot;_NEW&quot;&gt;\nhttp://s13.postimage.org/kj3q0ojyf/vlcsnap_2013_01_20_02h38m01s208.png&lt;/a&gt; &lt;a href=&quot;\nhttp://s13.postimage.org/w38jspszr/vlcsnap_2013_01_20_02h40m57s185.png&quot; rel=&quot;nofollow&quot; target=&quot;_NEW&quot;&gt;\nhttp://s13.postimage.org/w38jspszr/vlcsnap_2013_01_20_02h40m57s185.png&lt;/a&gt; &lt;a href=&quot;\nhttp://s13.postimage.org/5si4u8umf/vlcsnap_2013_01_20_02h44m46s32.png&quot; rel=&quot;nofollow&quot; target=&quot;_NEW&quot;&gt;\nhttp://s13.postimage.org/5si4u8umf/vlcsnap_2013_01_20_02h44m46s32.png&lt;/a&gt; &lt;a href=&quot;\nhttp://s13.postimage.org/il68u6687/vlcsnap_2013_01_20_02h45m15s218.png&quot; rel=&quot;nofollow&quot; target=&quot;_NEW&quot;&gt;\nhttp://s13.postimage.org/il68u6687/vlcsnap_2013_01_20_02h45m15s218.png&lt;/a&gt;\n\n\nFormat                                          : Matroska\nFormat version                                  : Version 2\nFile size                               : 1.99 GiB\nDuration                                        : 3h 9mn\nOverall bit rate mode                   : Variable\nOverall bit rate                                : 1 502 Kbps\nEncoded date                                    : UTC 2013-01-20 10:54:04\nWriting application                     : mkvmerge v5.8.0 ('No Sleep / Pillow') built on Sep  2 2012 15:37:04\nWriting library                         : libebml v1.2.3 + libmatroska v1.3.0\n\nVideo\nID                                              : 1\nFormat                                          : AVC\nFormat/Info                             : Advanced Video Codec\nFormat profile                                  : &lt;a class=&quot;__cf_email__&quot; href=&quot;/cdn-cgi/l/email-protection&quot; data-cfemail=&quot;763e1f111e363a425847&quot;&gt;[email&amp;#160;protected]&lt;/a&gt;&lt;script cf-hash='f9e31' type=&quot;text/javascript&quot;&gt;\n/* &lt;![CDATA[ */!function(){try{var t=&quot;currentScript&quot;in document?document.currentScript:function(){for(var t=document.getElementsByTagName(&quot;script&quot;),e=t.length;e--;)if(t[e].getAttribute(&quot;cf-hash&quot;))return t[e]}();if(t&amp;&amp;t.previousSibling){var e,r,n,i,c=t.previousSibling,a=c.getAttribute(&quot;data-cfemail&quot;);if(a){for(e=&quot;&quot;,r=parseInt(a.substr(0,2),16),n=2;a.length-n;n+=2)i=parseInt(a.substr(n,2),16)^r,e+=String.fromCharCode(i);e=document.createTextNode(e),c.parentNode.replaceChild(e,c)}}}catch(u){}}();/* ]]&gt; */&lt;/script&gt;\nFormat settings, CABAC                          : Yes\nFormat settings, ReFrames               : 3 frames\nMuxing mode                             : Header stripping\nCodec ID                                        : V_MPEG4/ISO/AVC\nDuration                                        : 3h 9mn\nBit rate mode                           : Variable\nBit rate                                        : 1 375 Kbps\nMaximum bit rate                                : 2 500 Kbps\nWidth                                   : 1 280 pixels\nHeight                                          : 720 pixels\nDisplay aspect ratio                            : 16:9\nFrame rate                                      : 25.000 fps\nColor space                             : YUV\nChroma subsampling                              : 4:2:0\nBit depth                               : 8 bits\nScan type                               : Progressive\nBits/(Pixel*Frame)                              : 0.060\nStream size                             : 1.78 GiB (89%)\n\n\nAudio\nID                                              : 2\nFormat                                          : AC-3\nFormat/Info                             : Audio Coding 3\nMode extension                                  : CM (complete main)\nFormat settings, Endianness             : Big\nMuxing mode                             : Header stripping\nCodec ID                                        : A_AC3\nDuration                                        : 3h 9mn\nBit rate mode                           : Constant\nBit rate                                        : 128 Kbps\nChannel(s)                                      : 2 channels\nChannel positions                       : Front: L R\nSampling rate                           : 48.0 KHz\nBit depth                               : 16 bits\nCompression mode                                : Lossy\nStream size                             : 174 MiB (9%)\nDefault                                 : Yes\nForced                                          : No\n\n\n\n\n*** All Credits Goes To : =@King= and ExD  ***","torrent":{"xt":"urn:btih:511da3fca7c2413e92a4de1b14d8821c3b0ae491","amp;dn":"19th+Annual+Screen+Awards+Red+Carpet+%2B+Main+Event+%5B19th+January+","amp;tr":["udp%3A%2F%2Ftracker.openbittorrent.com%3A80","udp%3A%2F%2Fopen.demonii.com%3A1337","udp%3A%2F%2Ftracker.coppersurfer.tk%3A6969","udp%3A%2F%2Fexodus.desync.com%3A6969"],"infoHash":"511da3fca7c2413e92a4de1b14d8821c3b0ae491","infoHashBuffer":{"type":"Buffer","data":[81,29,163,252,167,194,65,62,146,164,222,27,20,216,130,28,59,10,228,145]},"announce":[],"urlList":[]}}